<!-- <svg width="283" height="64" viewBox="0 0 283 64" fill="none" 
    xmlns="http://www.w3.org/2000/svg">
    <path d="M141.04 16c-11.04 0-19 7.2-19 18s8.96 18 20 18c6.67 0 12.55-2.64 16.19-7.09l-7.65-4.42c-2.02 2.21-5.09 3.5-8.54 3.5-4.79 0-8.86-2.5-10.37-6.5h28.02c.22-1.12.35-2.28.35-3.5 0-10.79-7.96-17.99-19-17.99zm-9.46 14.5c1.25-3.99 4.67-6.5 9.45-6.5 4.79 0 8.21 2.51 9.45 6.5h-18.9zM248.72 16c-11.04 0-19 7.2-19 18s8.96 18 20 18c6.67 0 12.55-2.64 16.19-7.09l-7.65-4.42c-2.02 2.21-5.09 3.5-8.54 3.5-4.79 0-8.86-2.5-10.37-6.5h28.02c.22-1.12.35-2.28.35-3.5 0-10.79-7.96-17.99-19-17.99zm-9.45 14.5c1.25-3.99 4.67-6.5 9.45-6.5 4.79 0 8.21 2.51 9.45 6.5h-18.9zM200.24 34c0 6 3.92 10 10 10 4.12 0 7.21-1.87 8.8-4.92l7.68 4.43c-3.18 5.3-9.14 8.49-16.48 8.49-11.05 0-19-7.2-19-18s7.96-18 19-18c7.34 0 13.29 3.19 16.48 8.49l-7.68 4.43c-1.59-3.05-4.68-4.92-8.8-4.92-6.07 0-10 4-10 10zm82.48-29v46h-9V5h9zM36.95 0L73.9 64H0L36.95 0zm92.38 5l-27.71 48L73.91 5H84.3l17.32 30 17.32-30h10.39zm58.91 12v9.69c-1-.29-2.06-.49-3.2-.49-5.81 0-10 4-10 10V51h-9V17h9v9.2c0-5.08 5.91-9.2 13.2-9.2z" fill="#000"/>
</svg> -->


<svg xmlns="http://www.w3.org/2000/svg" version="1.1" xmlns:xlink="http://www.w3.org/1999/xlink" xmlns:svgjs="http://svgjs.dev/svgjs" width="100%" height="100%" viewBox="0 0 1000 600"><rect width="1000" height="600" x="0" y="0" fill="black"/><g><rect width="333.3333333333333" height="333.3333333333333" rx="13.333333333333334" ry="13.333333333333334" y="201.84363165795804" fill="#f7f7f9" transform="matrix(0.6959080966369879,0,0,0.6959080966369879,0,43.55068581862102)" x="179.62136840820312"/><path d="M396.52771310796703 443.510299044518L296.0483722515788 443.510299044518L296.0483722515788 293.5103142357887L396.52771310796703 293.5103142357887L396.52771310796703 443.510299044518ZM379.93479443443505 415.22859099429786L379.93479443443505 337.4446755680407L390.683318419623 337.4446755680407L390.683318419623 328.9454138919315L357.62653710668644 328.9454138919315L357.62653710668644 337.4446755680407L370.6427599772571 337.4446755680407L370.6427599772571 395.44614462018694L370.1080992644433 395.44614462018694L320.9930599907886 328.9454138919315L302.40899107643276 328.9454138919315L302.40899107643276 337.4446755680407L313.821231808562 337.4446755680407L313.821231808562 406.7293293181887L303.8654806044428 406.7293293181887L303.8654806044428 415.22859099429786L336.79320588325186 415.22859099429786L336.79320588325186 406.7293293181887L323.1132662657399 406.7293293181887L323.1132662657399 347.2713707380324L323.6479269785537 347.2713707380324L373.7032316437086 415.22859099429786L379.93479443443505 415.22859099429786Z " fill="#" transform="matrix(0.6959080966369879,0,0,0.6959080966369879,0,43.55068581862102)"/><path d="M696.7673829077717 443.510299044518L596.2880420513834 443.510299044518L596.2880420513834 293.5103142357887L696.7673829077717 293.5103142357887L696.7673829077717 443.510299044518ZM680.1744642342396 415.22859099429786L680.1744642342396 337.4446755680407L690.9229882194276 337.4446755680407L690.9229882194276 328.9454138919315L657.866206906491 328.9454138919315L657.866206906491 337.4446755680407L670.8824297770617 337.4446755680407L670.8824297770617 395.44614462018694L670.3477690642479 395.44614462018694L621.2327297905932 328.9454138919315L602.6486608762374 328.9454138919315L602.6486608762374 337.4446755680407L614.0609016083665 337.4446755680407L614.0609016083665 406.7293293181887L604.1051504042474 406.7293293181887L604.1051504042474 415.22859099429786L637.0328756830564 415.22859099429786L637.0328756830564 406.7293293181887L623.3529360655446 406.7293293181887L623.3529360655446 347.2713707380324L623.8875967783583 347.2713707380324L673.9429014435132 415.22859099429786L680.1744642342396 415.22859099429786ZM770.84554649694 443.510299044518L693.5778552071927 443.510299044518L693.5778552071927 293.5103142357887L770.84554649694 293.5103142357887L770.84554649694 443.510299044518ZM747.4679677435638 404.07446233042356L747.4679677435638 415.22859099429786L767.3794701518023 415.22859099429786L767.3794701518023 407.66959470968885L756.7600022007418 407.66959470968885L756.7600022007418 356.15780051652393L735.1338981962383 356.15780051652393L735.1338981962383 363.716796801133L747.4679677435638 363.716796801133L747.4679677435638 390.800127391598Q747.209855675309 397.17918279275585 742.3610361073768 402.8760848706685Q737.5122165394446 408.59142352488504 729.9532202548357 408.59142352488504L729.9532202548357 408.59142352488504Q723.7216574641091 408.59142352488504 719.7393569824615 404.73817907736486Q715.7570565008139 400.8849346298447 715.7570565008139 391.3347881044118L715.7570565008139 391.3347881044118L715.7570565008139 356.15780051652393L696.1036661608305 356.15780051652393L696.1036661608305 363.716796801133L706.4650220436358 363.716796801133L706.4650220436358 393.9896550921769Q706.4650220436358 405.80750050299247 712.3647264608917 411.1725442074345Q718.2644308781476 416.5560244881804 726.8927485883842 416.5560244881804L726.8927485883842 416.5560244881804Q733.9355207364833 416.5560244881804 739.3190010172293 413.10838471934653Q744.6840447216712 409.6607449505127 747.4679677435638 404.07446233042356L747.4679677435638 404.07446233042356ZM826.0630925271937 443.510299044518L767.6560187963612 443.510299044518L767.6560187963612 293.5103142357887L826.0630925271937 293.5103142357887L826.0630925271937 443.510299044518ZM806.6862508317693 355.0884790908963L806.6862508317693 355.0884790908963Q801.6346289244939 355.0884790908963 797.7260747480618 358.48080913081844Q793.7990839953259 361.87313917074056 792.084482399061 366.77726846758446L792.084482399061 366.77726846758446L792.084482399061 356.15780051652393L772.6892041273325 356.15780051652393L772.6892041273325 363.716796801133L783.3086720783929 363.716796801133L783.3086720783929 407.66959470968885L772.9657527718914 407.66959470968885L772.9657527718914 415.22859099429786L806.2806461530829 415.22859099429786L806.2806461530829 407.66959470968885L792.6007065355709 407.66959470968885L792.6007065355709 378.5951138784Q792.6007065355709 371.6813977644283 796.0667828807086 367.36723890931Q799.5144226495424 363.0530800541917 804.6951005909452 363.0530800541917L804.6951005909452 363.0530800541917Q806.9443629000241 363.0530800541917 809.193625209103 363.8642894115644L809.193625209103 363.8642894115644L811.4613240944857 373.94909664981105L819.0203203790945 373.0088312583109L816.7710580700159 358.1489507573478Q813.0468696566231 355.0884790908963 806.6862508317693 355.0884790908963ZM929.0682443372195 443.510299044518L855.9303461395514 443.510299044518L855.9303461395514 293.5103142357887L929.0682443372195 293.5103142357887L929.0682443372195 443.510299044518ZM922.9657375806205 384.1629599221852L922.9657375806205 384.1629599221852Q922.9657375806205 370.0958522022908 915.7939093983939 362.5368559176818Q908.6220812161673 354.95942305676886 897.6154451627244 354.95942305676886L897.6154451627244 354.95942305676886Q889.1161834866152 354.95942305676886 884.1383078845558 358.94172353841657Q879.1604322824962 362.9240240200642 876.505565294731 368.36281402972196L876.505565294731 368.36281402972196L876.505565294731 323.89379198465616L856.981230988875 323.89379198465616L856.981230988875 331.47122484556917L867.0844748034256 331.47122484556917L867.0844748034256 397.97195557382463Q867.0844748034256 402.3598607341586 866.5498140906118 406.8583853523162Q866.015153377798 411.3753465467777 865.3514366308568 415.22859099429786L865.3514366308568 415.22859099429786L874.6434710880346 415.22859099429786Q874.772527122162 414.69393028148403 875.3071878349758 410.32446169745396Q875.8418485477898 405.93655653711994 875.8418485477898 405.40189582430617L875.8418485477898 405.40189582430617Q881.8152992702612 416.5560244881804 896.5461237370969 416.5560244881804L896.5461237370969 416.5560244881804Q905.9672142284023 416.5560244881804 911.8116089167463 411.7072049202483Q917.6560036050903 406.8583853523162 920.3108705928555 399.42844510183465Q922.9657375806205 391.99850485135306 922.9657375806205 384.1629599221852ZM913.1390424106289 385.10322531368536L913.1390424106289 385.10322531368536Q913.1390424106289 394.24776716043186 908.8248835555105 401.41959534265845Q904.5107247003923 408.59142352488504 894.6840295304005 408.59142352488504L894.6840295304005 408.59142352488504Q886.995977211664 408.59142352488504 881.7415529650455 403.4107455834823Q876.505565294731 398.2300676420795 876.505565294731 390.800127391598L876.505565294731 390.800127391598L876.505565294731 381.9136976131064Q876.6346213288584 375.4055861778211 881.6862432361338 369.1740233870946Q886.7194285671051 362.9240240200642 895.2186902432143 362.9240240200642L895.2186902432143 362.9240240200642Q902.7776865278233 362.9240240200642 907.9583644692261 368.5103066401533Q913.1390424106289 374.0781526839385 913.1390424106289 385.10322531368536ZM963.8396272464211 443.510299044518L925.8787166366408 443.510299044518L925.8787166366408 293.5103142357887L963.8396272464211 293.5103142357887L963.8396272464211 443.510299044518ZM929.8610171182884 407.66959470968885L929.8610171182884 415.22859099429786L959.8573267647735 415.22859099429786L959.8573267647735 407.66959470968885L949.5144074582718 407.66959470968885L949.5144074582718 323.89379198465616L929.731961084161 323.89379198465616L929.731961084161 331.47122484556917L940.222373001094 331.47122484556917L940.222373001094 407.66959470968885L929.8610171182884 407.66959470968885ZM1031.4096794003042 443.510299044518L960.6685361221462 443.510299044518L960.6685361221462 293.5103142357887L1031.4096794003042 293.5103142357887L1031.4096794003042 443.510299044518ZM996.1036357782889 354.8303670226414L996.1036357782889 354.8303670226414Q981.7599794138357 354.8303670226414 974.3300391633541 364.0486551746036Q966.9000989128724 373.28537990286975 966.9000989128724 386.154110163009L966.9000989128724 386.154110163009Q966.9000989128724 399.55750113596207 974.5328415026972 408.05676281207127Q982.1655840925221 416.5560244881804 995.5689750654751 416.5560244881804L995.5689750654751 416.5560244881804Q1009.2489146829869 416.5560244881804 1017.2135156462823 407.7986507438163Q1025.1781166095777 399.0412769994522 1025.1781166095777 385.61944945019525L1025.1781166095777 385.61944945019525Q1025.1781166095777 373.0088312583109 1017.8772323932237 363.9195991404762Q1010.5763481768695 354.8303670226414 996.1036357782889 354.8303670226414ZM995.8455237100338 408.59142352488504L995.8455237100338 408.59142352488504Q986.4059966424247 408.59142352488504 981.5018673455806 401.9542560554723Q976.5977380487368 395.31708858605947 976.5977380487368 385.61944945019525L976.5977380487368 385.61944945019525Q976.5977380487368 375.81119085650744 981.5756136507964 369.3030794212221Q986.553489252856 362.79496798593675 995.8455237100338 362.79496798593675L995.8455237100338 362.79496798593675Q1005.1375581672119 362.79496798593675 1010.2444898033989 369.1002770818789Q1015.3514214395859 375.4055861778211 1015.3514214395859 385.4903934160678L1015.3514214395859 385.4903934160678Q1015.3514214395859 395.44614462018694 1010.2997995323105 402.028002360688Q1005.2666142013393 408.59142352488504 995.8455237100338 408.59142352488504ZM1059.5623314163968 443.510299044518L1028.2201516997252 443.510299044518L1028.2201516997252 293.5103142357887L1103.7548048169037 293.5103142357887L1103.7548048169037 443.510299044518L1062.7334225406717 443.510299044518Q1076.0077574794973 442.97563833170415 1083.2533319669396 434.8082350290656Q1090.480469878078 426.6408317264271 1090.480469878078 413.10838471934653L1090.480469878078 413.10838471934653L1090.480469878078 363.716796801133L1100.0490529798149 363.716796801133L1100.0490529798149 356.15780051652393L1081.0593793867727 356.15780051652393L1081.0593793867727 365.44983497370185Q1075.085928664301 354.95942305676886 1061.0188209444068 354.95942305676886L1061.0188209444068 354.95942305676886Q1047.3388813268948 354.95942305676886 1040.978262502041 365.1917229054469Q1034.5992071008832 375.4055861778211 1034.5992071008832 387.22343158863663L1034.5992071008832 387.22343158863663Q1034.5992071008832 401.1614832744035 1042.0291473513646 408.59142352488504Q1049.4590876018462 416.02136377536664 1059.9494995187792 416.02136377536664L1059.9494995187792 416.02136377536664Q1068.3197051607608 416.02136377536664 1073.3528904917323 412.1681193278464Q1078.4045123990074 408.3333114566301 1081.0593793867727 403.15263351522736L1081.0593793867727 403.15263351522736L1081.0593793867727 412.70278004066023Q1081.0593793867727 423.72785267040706 1075.6758991060267 429.57224735875104Q1070.3108554015846 435.3982054707912 1061.8115937254756 435.3982054707912L1061.8115937254756 435.3982054707912Q1055.838143003004 435.3982054707912 1050.2702969592187 432.3561703806437Q1044.6840143391298 429.2956987141922 1042.434752030051 422.40041917652445L1042.434752030051 422.40041917652445L1035.0048117795693 426.1061710136133Q1037.2540740886482 434.6054326897224 1044.0940438974042 438.86428181592896Q1050.9340137061602 443.1046943658316 1059.5623314163968 443.510299044518L1059.5623314163968 443.510299044518ZM1081.0593793867727 379.5169426935962L1081.0593793867727 379.5169426935962L1081.0593793867727 389.74924254227426Q1080.8012673185178 396.3864100116871 1075.5468430718993 402.1570583948154Q1070.3108554015846 407.9277067779438 1061.940649759603 407.9277067779438L1061.940649759603 407.9277067779438Q1054.639765543249 407.9277067779438 1049.6065802122775 402.69171910762924Q1044.5549583050024 397.4372948610108 1044.5549583050024 386.5597148416954L1044.5549583050024 386.5597148416954Q1044.5549583050024 377.26768038451746 1048.998173194248 370.1695985075065Q1053.4413880834938 363.0530800541917 1063.5446318980446 363.0530800541917L1063.5446318980446 363.0530800541917Q1070.698023503967 363.0530800541917 1075.8787014453699 367.5700412486532Q1081.0593793867727 372.08700244311467 1081.0593793867727 379.5169426935962ZM1138.544624302409 443.510299044518L1100.5652771163248 443.510299044518L1100.5652771163248 293.5103142357887L1138.544624302409 293.5103142357887L1138.544624302409 443.510299044518ZM1104.5475775979723 407.66959470968885L1104.5475775979723 415.22859099429786L1134.5623238207613 415.22859099429786L1134.5623238207613 407.66959470968885L1124.2009679379557 407.66959470968885L1124.2009679379557 323.89379198465616L1104.418521563845 323.89379198465616L1104.418521563845 331.47122484556917L1114.908933480778 331.47122484556917L1114.908933480778 407.66959470968885L1104.5475775979723 407.66959470968885ZM1202.1139393983406 443.510299044518L1135.3550966018302 443.510299044518L1135.3550966018302 293.5103142357887L1202.1139393983406 293.5103142357887L1202.1139393983406 443.510299044518ZM1147.4310540809006 360.6747617109854L1147.4310540809006 360.6747617109854L1145.3108478059494 374.3362647521935L1152.9989001246859 375.2765301436936L1155.2665990100684 365.04423029501555Q1160.1707283069125 362.6659119518093 1166.6788397421976 362.6659119518093L1166.6788397421976 362.6659119518093Q1174.643440705493 362.6659119518093 1177.372053998474 366.648212433457Q1180.082230715151 370.63051291510465 1180.082230715151 376.9911317399586L1180.082230715151 376.9911317399586L1180.082230715151 382.30086571548884Q1177.7039123719446 382.0427536472339 1174.9752990789636 381.9136976131064Q1172.246685785983 381.78464157897895 1169.591818798218 381.78464157897895L1169.591818798218 381.78464157897895Q1159.6360675940987 381.78464157897895 1150.8233841208228 385.2875910767246Q1141.992264071243 388.8089771507741 1141.992264071243 399.96310581464843L1141.992264071243 399.96310581464843Q1141.992264071243 409.3841963059538 1148.0210245226262 412.9793286852191Q1154.0682215503134 416.5560244881804 1159.9126162386574 416.5560244881804L1159.9126162386574 416.5560244881804Q1167.0844444208842 416.5560244881804 1172.1913760570712 412.8318360747877Q1177.2983076932583 409.1260842376989 1180.082230715151 404.35101097498244L1180.082230715151 404.35101097498244L1180.082230715151 404.6091230432374Q1180.3587793597096 416.5560244881804 1190.8307547003387 416.5560244881804L1190.8307547003387 416.5560244881804Q1194.9605477924179 416.5560244881804 1198.537243595379 414.56487424735656L1198.537243595379 414.56487424735656L1198.4081875612517 408.46236749075763Q1196.675149388683 409.25514027182635 1194.4258870796039 409.25514027182635L1194.4258870796039 409.25514027182635Q1189.3742651723287 409.25514027182635 1189.3742651723287 402.8760848706685L1189.3742651723287 402.8760848706685L1189.3742651723287 374.7418694308798Q1189.3742651723287 354.95942305676886 1168.2643853043353 354.95942305676886L1168.2643853043353 354.95942305676886Q1162.4384271922952 354.95942305676886 1157.2577492508924 356.28685655065146Q1152.0770713094896 357.614290044534 1147.4310540809006 360.6747617109854ZM1180.082230715151 388.5508650825192L1180.082230715151 393.0678262769807Q1179.547570002337 400.3687104933348 1174.182526297895 404.6091230432374Q1168.799046017149 408.84953559314 1162.69653926055 408.84953559314L1162.69653926055 408.84953559314Q1158.8432948130298 408.84953559314 1155.2665990100684 406.7293293181887Q1151.6714666308033 404.6091230432374 1151.6714666308033 398.8937843890208L1151.6714666308033 398.8937843890208Q1151.6714666308033 391.99850485135306 1157.0549469115492 389.93360830531356Q1162.4384271922952 387.88714833557793 1169.075594661708 387.88714833557793L1169.075594661708 387.88714833557793Q1171.9885737177278 387.88714833557793 1174.7724967396207 388.1452604038329Q1177.556419761513 388.42180904839176 1180.082230715151 388.5508650825192L1180.082230715151 388.5508650825192ZM1257.3499220048982 443.510299044518L1198.9428482740655 443.510299044518L1198.9428482740655 293.5103142357887L1257.3499220048982 293.5103142357887L1257.3499220048982 443.510299044518ZM1237.9546437331699 355.0884790908963L1237.9546437331699 355.0884790908963Q1232.9214584021981 355.0884790908963 1228.9944676494622 358.48080913081844Q1225.0859134730304 361.87313917074056 1223.3528753004614 366.77726846758446L1223.3528753004614 366.77726846758446L1223.3528753004614 356.15780051652393L1203.976033605037 356.15780051652393L1203.976033605037 363.716796801133L1214.5955015560974 363.716796801133L1214.5955015560974 407.66959470968885L1204.2525822495957 407.66959470968885L1204.2525822495957 415.22859099429786L1237.5674756307874 415.22859099429786L1237.5674756307874 407.66959470968885L1223.8875360132754 407.66959470968885L1223.8875360132754 378.5951138784Q1223.8875360132754 371.6813977644283 1227.3351757821092 367.36723890931Q1230.801252127247 363.0530800541917 1235.9634934923458 363.0530800541917L1235.9634934923458 363.0530800541917Q1238.2311923777286 363.0530800541917 1240.4804546868074 363.8642894115644L1240.4804546868074 363.8642894115644L1242.74815357219 373.94909664981105L1250.307149856799 373.0088312583109L1248.0578875477202 358.1489507573478Q1244.3336991343274 355.0884790908963 1237.9546437331699 355.0884790908963Z " fill="#f7f7f9" transform="matrix(0.6959080966369879,0,0,0.6959080966369879,0,43.55068581862102)"/></g></svg>